<?xml version="1.0" encoding="UTF-8"?>
<svg version="1.1" xmlns="http://www.w3.org/2000/svg" width="500" height="500">
<path d="M0 0 C5.37036513 3.61466884 9.61018302 8.64102855 11.6015625 14.88671875 C13.95341884 27.36078031 10.09041483 35.52438677 4 46 C3.63084473 46.64356445 3.26168945 47.28712891 2.88134766 47.95019531 C0.91377674 51.37032955 -1.09114707 54.76655983 -3.1171875 58.15234375 C-6.53715147 63.87758998 -9.86042965 69.65793531 -13.1875 75.4375 C-13.82139648 76.53747314 -14.45529297 77.63744629 -15.10839844 78.77075195 C-17.07293982 82.18011347 -19.03659775 85.58998236 -21 89 C-22.96356547 92.41030112 -24.92737034 95.82045602 -26.89355469 99.22924805 C-28.1642643 101.43649975 -29.43060586 103.64627237 -30.69238281 105.85864258 C-33.40690175 110.60253587 -36.14320352 115.29143371 -39.1640625 119.84765625 C-43.67627387 126.73920113 -46.69411784 131.66215779 -46.125 140.0625 C-45.4761827 149.77567664 -49.17485293 155.89620204 -54 164 C-54.74477577 165.28962265 -55.48826953 166.57998654 -56.23046875 167.87109375 C-57.8381552 170.64454985 -59.47069893 173.40176095 -61.1171875 176.15234375 C-64.53715256 181.87759182 -67.86033155 187.65799002 -71.1875 193.4375 C-72.13616943 195.08310913 -72.13616943 195.08310913 -73.10400391 196.76196289 C-76.07817242 201.92209667 -79.04890311 207.08418703 -82.01470947 212.24913025 C-85.47048052 218.26722729 -88.94019877 224.27695141 -92.42578125 230.27783203 C-93.7767833 232.61400958 -95.11015684 234.95894549 -96.4375 237.30859375 C-100.08710544 243.58848123 -103.48914666 248.52596936 -110 252 C-111.08152344 252.28488281 -112.16304688 252.56976563 -113.27734375 252.86328125 C-119.24165138 255.38941553 -121.60701285 262.14723221 -124.5 267.5625 C-125.19692747 268.82983106 -125.8961028 270.09592832 -126.59741211 271.36083984 C-128.03890758 273.96397301 -129.47142393 276.5717412 -130.89794922 279.18310547 C-134.02417083 284.88510826 -137.29609654 290.50252346 -140.5625 296.125 C-141.79739333 298.26141923 -143.03176728 300.39813875 -144.265625 302.53515625 C-144.87728516 303.5936377 -145.48894531 304.65211914 -146.11914062 305.74267578 C-148.7093371 310.22844958 -151.29382501 314.71750191 -153.87792969 319.20678711 C-155.76760905 322.48463199 -157.66484376 325.75801877 -159.5625 329.03125 C-161.68531415 332.69835312 -163.77234675 336.38007974 -165.8125 340.09375 C-170.54597609 348.61979162 -175.18457462 354.93276188 -183 361 C-184.38261039 362.19961784 -185.7580536 363.40756336 -187.125 364.625 C-188.41615097 365.75059182 -189.7078871 366.87551255 -191 368 C-192.41440359 369.23658914 -193.82846839 370.47356589 -195.2421875 371.7109375 C-195.94972168 372.3301709 -196.65725586 372.9494043 -197.38623047 373.58740234 C-197.91877441 374.05355957 -198.45131836 374.5197168 -199 375 C-197.93004288 375.00586624 -196.86008575 375.01173248 -195.75770569 375.01777649 C-185.65037214 375.07511041 -175.54325153 375.14792761 -165.43613529 375.23571491 C-160.2405612 375.28034957 -155.04506428 375.31962088 -149.84936523 375.34643555 C-144.83065899 375.37253742 -139.81225081 375.41298841 -134.79372978 375.46318626 C-132.88372964 375.4798085 -130.973678 375.49135158 -129.0636158 375.49761391 C-126.3781152 375.5073057 -123.6933692 375.53542484 -121.00805664 375.56762695 C-120.22689987 375.56619186 -119.4457431 375.56475677 -118.64091492 375.5632782 C-110.53689509 375.69977595 -103.50899944 377.7192743 -97.50390625 383.3203125 C-91.69709906 389.80583741 -90.62384121 396.45474762 -90.7265625 404.8984375 C-91.376649 412.27227577 -94.7690581 417.61110469 -100.14453125 422.5625 C-107.32359367 428.12438415 -115.93780971 428.1288766 -124.6015625 428.140625 C-126.24220158 428.15893538 -127.88282702 428.17850402 -129.5234375 428.19921875 C-132.08227077 428.22826284 -134.64020935 428.25000288 -137.19921875 428.25048828 C-139.6882869 428.25382356 -142.17534436 428.28834171 -144.6640625 428.328125 C-145.80640854 428.31752045 -145.80640854 428.31752045 -146.97183228 428.30670166 C-150.96753129 428.39807998 -152.8137821 428.85378357 -155.99365234 431.35058594 C-158.23293821 433.86270922 -158.23293821 433.86270922 -158.4375 437.0625 C-158.01257513 439.91556699 -157.66912169 441.66322963 -156 444 C-153.02849744 445.81878792 -150.79731124 446.25012101 -147.33863831 446.2515564 C-146.40639435 446.25693924 -145.47415039 446.26232208 -144.51365662 446.26786804 C-143.49796097 446.26374405 -142.48226532 446.25962006 -141.43579102 446.25537109 C-140.36059204 446.25899155 -139.28539307 446.262612 -138.1776123 446.26634216 C-135.84280305 446.27323607 -133.50797769 446.27574161 -131.17315865 446.27439499 C-127.47901093 446.273431 -123.78515517 446.28635666 -120.09104919 446.30337524 C-109.58798479 446.34969022 -99.08495009 446.37426171 -88.58178711 446.38085938 C-82.15800036 446.38586791 -75.73451848 446.41008404 -69.31083488 446.44618607 C-66.86162075 446.4559987 -64.41236475 446.45830809 -61.96313667 446.45301437 C-58.53962635 446.44596141 -55.11702765 446.46319053 -51.69360352 446.48583984 C-50.6799321 446.47766739 -49.66626068 446.46949493 -48.62187195 446.46107483 C-44.24108616 446.51271534 -41.70111489 446.5761888 -37.89024353 448.87979126 C-35.66425015 451.37659686 -35.08137488 452.6636298 -35 456 C-36.06399073 459.81263347 -36.6251651 460.75011007 -40 463 C-42.1400013 463.25726891 -42.1400013 463.25726891 -44.66604614 463.26742554 C-46.10416405 463.28022049 -46.10416405 463.28022049 -47.57133484 463.29327393 C-48.62174454 463.29236755 -49.67215424 463.29146118 -50.75439453 463.29052734 C-52.41585762 463.30060318 -52.41585762 463.30060318 -54.11088562 463.31088257 C-57.78490651 463.32993087 -61.45874525 463.33379076 -65.1328125 463.3359375 C-67.68529333 463.34236255 -70.23777342 463.34909069 -72.79025269 463.35610962 C-78.1486003 463.36810082 -83.50687991 463.37187429 -88.86523438 463.37060547 C-95.04266931 463.36940667 -101.21975337 463.39045405 -107.39709961 463.4220928 C-113.35207257 463.45149748 -119.3069395 463.45857869 -125.26198959 463.45738602 C-127.78887231 463.45974248 -130.31575776 463.4685685 -132.84259415 463.48405075 C-136.38510135 463.5037166 -139.92671571 463.49786846 -143.46923828 463.48583984 C-144.50750259 463.49707886 -145.54576691 463.50831787 -146.61549377 463.51989746 C-154.57738836 463.45143933 -160.88051959 461.50734177 -167.3125 456.75 C-172.55213057 451.38851756 -175.12183143 444.90597284 -175.375 437.4375 C-175.28446538 429.94123365 -173.15203795 424.4252993 -168.0625 418.89453125 C-161.5698694 412.93065655 -156.37899466 411.71306567 -147.75390625 411.69140625 C-145.92903321 411.66625049 -144.10416349 411.6408524 -142.27929688 411.61523438 C-139.41789584 411.58649509 -136.55655242 411.56246101 -133.69506836 411.54370117 C-130.92271703 411.52199559 -128.15102726 411.48255966 -125.37890625 411.44140625 C-124.52873428 411.44129044 -123.67856232 411.44117462 -122.80262756 411.4410553 C-117.81677912 411.35836415 -114.29581703 410.80866045 -110 408 C-107.51961093 404.2794164 -107.53662797 402.40203429 -108 398 C-109.86708505 395.63502561 -111.32061431 394.33969285 -114 393 C-115.47117616 392.90457995 -116.94658707 392.87098586 -118.42085266 392.86869812 C-119.35034729 392.86468994 -120.27984192 392.86068176 -121.23750305 392.85655212 C-122.26038925 392.85708084 -123.28327545 392.85760956 -124.3371582 392.8581543 C-125.41206512 392.85467987 -126.48697205 392.85120544 -127.5944519 392.84762573 C-129.93475639 392.8402599 -132.27506791 392.83491894 -134.61538124 392.83133507 C-138.31771684 392.82418605 -142.01991864 392.80853134 -145.72221375 392.78999329 C-156.25092196 392.73744865 -166.77952234 392.68953215 -177.30834961 392.67407227 C-183.74281812 392.66400328 -190.17695173 392.63470487 -196.61128807 392.59275246 C-199.06607724 392.58042113 -201.52091367 392.57532506 -203.9757328 392.57755089 C-207.40907273 392.5798979 -210.84144836 392.55778127 -214.2746582 392.5300293 C-215.29147171 392.53663071 -216.30828522 392.54323212 -217.35591125 392.55003357 C-221.70796521 392.49218437 -224.31734426 392.39435304 -228.14222717 390.18481445 C-230.37712769 387.55648289 -230.53411478 385.79413245 -230.31011963 382.39419556 C-229.67422777 377.4849627 -228.77832076 372.64550688 -227.8046875 367.79296875 C-227.57476105 366.63179031 -227.34483459 365.47061188 -227.10794067 364.27424622 C-226.6194571 361.82513667 -226.12668348 359.37687934 -225.62988281 356.92944336 C-224.88026172 353.21358225 -224.15841408 349.49300634 -223.4375 345.77148438 C-222.95743091 343.38246991 -222.47571294 340.99378607 -221.9921875 338.60546875 C-221.67772171 336.95649849 -221.67772171 336.95649849 -221.35690308 335.2742157 C-219.77077723 327.66407505 -217.01567479 321.62950128 -213 315 C-212.05362671 313.3137854 -212.05362671 313.3137854 -211.08813477 311.59350586 C-210.27300415 310.16856812 -210.27300415 310.16856812 -209.44140625 308.71484375 C-208.81613037 307.62091309 -208.19085449 306.52698242 -207.54663086 305.39990234 C-206.89186768 304.25730957 -206.23710449 303.1147168 -205.5625 301.9375 C-204.8587682 300.7078663 -204.15507432 299.47821091 -203.45141602 298.24853516 C-196.96402134 286.91702435 -190.43988575 275.60673434 -183.90722656 264.30126953 C-180.54007374 258.47297454 -177.17638302 252.6426826 -173.8125 246.8125 C-173.18851318 245.73145996 -172.56452637 244.65041992 -171.92163086 243.53662109 C-170.77475952 241.54917294 -169.63226035 239.55919233 -168.49511719 237.56616211 C-167.59289831 236.01762804 -166.66347136 234.48390198 -165.68457031 232.98266602 C-162.11891063 227.43253766 -162.92271949 222.76700136 -163.4453125 216.42578125 C-163.32932708 210.29287331 -159.93875555 205.21165381 -157 200 C-156.48872559 199.09032471 -155.97745117 198.18064941 -155.45068359 197.2434082 C-153.86693744 194.48028198 -152.2507954 191.7385788 -150.625 189 C-149.38686999 186.8965103 -148.14993994 184.79231395 -146.9140625 182.6875 C-146.2737207 181.59695312 -145.63337891 180.50640625 -144.97363281 179.3828125 C-141.949147 174.19883484 -138.97713453 168.98528975 -136.00769043 163.76968384 C-130.49955843 154.09642319 -124.96631799 144.43798399 -119.375 134.8125 C-118.81941406 133.85150391 -118.26382813 132.89050781 -117.69140625 131.90039062 C-105.45366039 110.89374901 -105.45366039 110.89374901 -96 107 C-94.68 107 -93.36 107 -92 107 C-91.58379395 105.90715698 -91.58379395 105.90715698 -91.15917969 104.79223633 C-90.07184335 102.17305652 -88.85102985 99.78877258 -87.453125 97.32421875 C-86.94547607 96.42678955 -86.43782715 95.52936035 -85.91479492 94.60473633 C-85.3654126 93.64204834 -84.81603027 92.67936035 -84.25 91.6875 C-83.67290283 90.67131592 -83.09580566 89.65513184 -82.5012207 88.6081543 C-77.88481641 80.50064486 -73.19091718 72.4393768 -68.47509766 64.3894043 C-61.21613708 51.98404495 -54.11145141 39.49030479 -47 27 C-49.29618682 27.36870885 -51.58702169 27.77087618 -53.875 28.1875 C-55.15117187 28.40792969 -56.42734375 28.62835938 -57.7421875 28.85546875 C-61.13832373 29.64320482 -61.13832373 29.64320482 -62.28613281 32.32104492 C-62.52170898 33.2051001 -62.75728516 34.08915527 -63 35 C-63.8205546 36.57373278 -64.67124431 38.13201455 -65.546875 39.67578125 C-66.05500732 40.57409668 -66.56313965 41.47241211 -67.08666992 42.39794922 C-67.63556885 43.35975098 -68.18446777 44.32155273 -68.75 45.3125 C-69.32274658 46.32070801 -69.89549316 47.32891602 -70.4855957 48.36767578 C-75.82326677 57.73955734 -81.23808214 67.06586148 -86.7109375 76.359375 C-88.79361755 79.90390154 -90.821581 83.46845988 -92.7890625 87.078125 C-93.43452026 88.23948975 -93.43452026 88.23948975 -94.09301758 89.42431641 C-94.86822475 90.82325883 -95.62780737 92.23106242 -96.3659668 93.64990234 C-99.45400714 99.15445341 -103.62762454 101.85292207 -109 105 C-109.82588623 105.49951172 -110.65177246 105.99902344 -111.50268555 106.51367188 C-114.04364192 108.02774487 -116.60952123 109.48750891 -119.1875 110.9375 C-120.05052734 111.44345703 -120.91355469 111.94941406 -121.80273438 112.47070312 C-128.13071389 116.01960059 -128.13071389 116.01960059 -132.46484375 115.921875 C-135.61107301 114.77779163 -137.06962586 113.74707089 -139 111 C-139.59165709 107.52401457 -139.44176222 105.74216054 -137.6328125 102.703125 C-133.76471627 98.73172649 -129.19976677 96.356037 -124.375 93.6875 C-123.40820312 93.13771484 -122.44140625 92.58792969 -121.4453125 92.02148438 C-114.29156638 88 -114.29156638 88 -112 88 C-111.75636719 87.15953125 -111.51273437 86.3190625 -111.26171875 85.453125 C-109.85121373 81.59279547 -107.94027368 78.24176393 -105.8125 74.75 C-104.90755681 73.23905751 -104.00400264 71.72728256 -103.1015625 70.21484375 C-102.60688477 69.38710449 -102.11220703 68.55936523 -101.60253906 67.70654297 C-99.23106847 63.70134447 -96.9131464 59.6659248 -94.59423828 55.63012695 C-92.67840424 52.29667385 -90.75381747 48.96839087 -88.828125 45.640625 C-86.31267447 41.29019537 -83.82626419 36.92499933 -81.359375 32.546875 C-80.21915657 30.55185091 -79.07855022 28.55704846 -77.9375 26.5625 C-77.42598389 25.63928955 -76.91446777 24.7160791 -76.38745117 23.76489258 C-75.652323 22.49101685 -75.652323 22.49101685 -74.90234375 21.19140625 C-74.48460693 20.45092041 -74.06687012 19.71043457 -73.63647461 18.94750977 C-69.83437907 14.42277217 -64.20488133 13.40111109 -58.66015625 12.16796875 C-57.25307799 11.84125708 -55.84618223 11.51375864 -54.43945312 11.18554688 C-52.25157442 10.68336658 -50.06283166 10.18757288 -47.87036133 9.70581055 C-39.5492598 7.86322083 -33.08654707 6.35609415 -27 0 C-18.43854512 -4.71790811 -8.68833117 -4.14366564 0 0 Z M-23 18 C-25.24068036 21.30987699 -27.11330066 24.79166323 -29 28.3125 C-30.14678804 30.39674175 -31.29527959 32.48004693 -32.4453125 34.5625 C-33.0321582 35.63113281 -33.61900391 36.69976562 -34.22363281 37.80078125 C-37.027977 42.85137584 -39.94915501 47.8316169 -42.875 52.8125 C-48.50648641 62.42704053 -54.09266956 72.06669682 -59.64013672 81.72998047 C-62.4508447 86.61839475 -65.27871629 91.49107837 -68.203125 96.3125 C-68.91903809 97.49888062 -68.91903809 97.49888062 -69.64941406 98.70922852 C-70.52270252 100.15002818 -71.40433287 101.58581896 -72.29589844 103.01538086 C-73.27437462 104.63271242 -74.14868494 106.31226789 -75 108 C-73.61469424 112.15591729 -70.76632662 113.17786565 -67.125 115.1875 C-66.16787109 115.73954102 -66.16787109 115.73954102 -65.19140625 116.30273438 C-61.33690714 118.47297124 -61.33690714 118.47297124 -57 119 C-56.4738208 118.05253906 -56.4738208 118.05253906 -55.93701172 117.0859375 C-48.29666705 103.34470212 -40.53344144 89.68897462 -32.58203125 76.125 C-28.1306651 68.52852656 -23.73593123 60.89941098 -19.35742188 53.26074219 C-16.57303932 48.41238081 -13.76952938 43.58558466 -10.83203125 38.828125 C-10.35926758 38.05525146 -9.88650391 37.28237793 -9.39941406 36.48608398 C-8.54351795 35.09454946 -7.6754283 33.71039673 -6.79199219 32.33618164 C-4.17312379 28.06046661 -3.48604863 24.98230503 -4 20 C-5.26998319 17.14253783 -6.2838003 15.51862737 -8.8125 13.6875 C-15.07019737 11.72079511 -18.6861288 13.3188365 -23 18 Z M-94 125 C-98.82300097 131.29297911 -102.6021798 138.38302557 -106.48904419 145.27130127 C-108.24451586 148.3816238 -110.01153526 151.48538184 -111.77734375 154.58984375 C-112.13420761 155.2178186 -112.49107147 155.84579346 -112.85874939 156.49279785 C-116.21666477 162.39558355 -119.63127035 168.26454637 -123.0625 174.125 C-126.77223586 180.46219753 -130.47126982 186.80505861 -134.13671875 193.16796875 C-134.65366051 194.0652771 -134.65366051 194.0652771 -135.18104553 194.98071289 C-136.85684362 197.89063503 -138.53089359 200.80154484 -140.20336914 203.71337891 C-140.80141357 204.75284668 -141.39945801 205.79231445 -142.015625 206.86328125 C-142.54446289 207.78407471 -143.07330078 208.70486816 -143.61816406 209.65356445 C-144.68824811 211.47062767 -145.83027964 213.24541946 -147 215 C-147.55909461 219.08298226 -147.55909461 219.08298226 -147 223 C-143.15947824 227.73207146 -138.31608392 230.41766804 -133.0625 233.3125 C-131.88397461 233.9940918 -131.88397461 233.9940918 -130.68164062 234.68945312 C-124.70165672 238.07423201 -124.70165672 238.07423201 -118 238 C-112.32532583 233.90515512 -109.41615948 227.17253256 -106.0625 221.1875 C-105.39927767 220.01819427 -104.73511738 218.8494201 -104.07006836 217.68115234 C-103.04677577 215.88325562 -102.02410119 214.08503728 -101.00440979 212.28509521 C-97.74513438 206.53288781 -94.40821635 200.82730205 -91.0625 195.125 C-85.13540433 184.99667695 -79.30245924 174.81619156 -73.50415039 164.61376953 C-72.5585022 162.9525708 -72.5585022 162.9525708 -71.59375 161.2578125 C-70.99095215 160.19876709 -70.3881543 159.13972168 -69.76708984 158.04858398 C-67.62362023 154.3506695 -65.38711258 150.71526356 -63.10986328 147.09838867 C-61.40389223 143.87295506 -61.3051063 141.54395788 -62 138 C-65.32685855 132.48902655 -70.55605171 130.11879337 -76.0625 127.1875 C-77.42858398 126.43436523 -77.42858398 126.43436523 -78.82226562 125.66601562 C-86.44947049 121.4277922 -86.44947049 121.4277922 -94 125 Z M-151 241 C-155.95387924 247.53367587 -159.80577738 254.83672082 -163.75 262 C-168.10638429 269.84559668 -172.50309566 277.65431668 -177.08520508 285.37011719 C-181.76747006 293.26468929 -186.33436525 301.22581811 -190.91186523 309.18139648 C-191.52747314 310.25075439 -192.14308105 311.3201123 -192.77734375 312.421875 C-193.32640381 313.37674805 -193.87546387 314.33162109 -194.44116211 315.31542969 C-195.49470751 317.12980482 -196.60474602 318.91235039 -197.76391602 320.66113281 C-198.17182373 321.43295898 -198.57973145 322.20478516 -199 323 C-197.88223763 326.35328711 -197.51607905 326.58311383 -194.62109375 328.26171875 C-193.94755859 328.65810547 -193.27402344 329.05449219 -192.58007812 329.46289062 C-191.87302734 329.86701172 -191.16597656 330.27113281 -190.4375 330.6875 C-189.72658203 331.10322266 -189.01566406 331.51894531 -188.28320312 331.94726562 C-186.52677489 332.97283111 -184.76397309 333.98746671 -183 335 C-180.13522487 331.57142523 -177.79396436 328.12061062 -175.6015625 324.23046875 C-174.96468506 323.10688965 -174.32780762 321.98331055 -173.67163086 320.82568359 C-173.33839813 320.23325867 -173.00516541 319.64083374 -172.66183472 319.03045654 C-170.8812277 315.86545706 -169.08598771 312.70876003 -167.29296875 309.55078125 C-166.92992142 308.91043945 -166.56687408 308.27009766 -166.19282532 307.61035156 C-162.82210414 301.67056517 -159.38879327 295.76831162 -155.9375 289.875 C-154.80843511 287.94280103 -153.67953035 286.01050847 -152.55078125 284.078125 C-151.98182129 283.10423828 -151.41286133 282.13035156 -150.82666016 281.12695312 C-150.2238623 280.09505859 -149.62106445 279.06316406 -149 278 C-148.66579041 277.42822021 -148.33158081 276.85644043 -147.98724365 276.26733398 C-145.86942414 272.64324467 -143.7563173 269.01647282 -141.6489563 265.3862915 C-140.64263302 263.65533028 -139.63178048 261.92700477 -138.62084961 260.19873047 C-138.01635986 259.15604004 -137.41187012 258.11334961 -136.7890625 257.0390625 C-136.24975098 256.11303223 -135.71043945 255.18700195 -135.15478516 254.23291016 C-133.84687664 252.1228925 -133.84687664 252.1228925 -134 250 C-136.64440376 248.49743011 -139.29041852 246.9978388 -141.9375 245.5 C-143.06961914 244.85611328 -143.06961914 244.85611328 -144.22460938 244.19921875 C-144.94326172 243.79316406 -145.66191406 243.38710938 -146.40234375 242.96875 C-147.39995728 242.40317383 -147.39995728 242.40317383 -148.41772461 241.82617188 C-149.850243 240.92285893 -149.850243 240.92285893 -151 241 Z M-205 341 C-205.69918305 343.58067563 -206.38461049 346.16372847 -207.0625 348.75 C-207.26166016 349.47960937 -207.46082031 350.20921875 -207.66601562 350.9609375 C-208.63744407 354.71031044 -209.15449387 357.30274238 -208 361 C-205.87453098 359.0421736 -203.74960666 357.08376183 -201.625 355.125 C-201.02171875 354.56941406 -200.4184375 354.01382812 -199.796875 353.44140625 C-199.21679688 352.90644531 -198.63671875 352.37148438 -198.0390625 351.8203125 C-197.50490723 351.32805176 -196.97075195 350.83579102 -196.42041016 350.32861328 C-195.25855182 349.24184238 -194.12494128 348.12494128 -193 347 C-194.62170379 345.99466333 -196.24747237 344.99588093 -197.875 344 C-198.77992188 343.443125 -199.68484375 342.88625 -200.6171875 342.3125 C-202.83857467 340.83917671 -202.83857467 340.83917671 -205 341 Z " fill="#02035D" transform="translate(359,20)"/>
</svg>
